<?xml version="1.0" encoding="UTF-8" standalone="no"?>
<!DOCTYPE svg PUBLIC "-//W3C//DTD SVG 1.1//EN" "http://www.w3.org/Graphics/SVG/1.1/DTD/svg11.dtd">
<svg width="1024" height="1024" viewBox="0 0 2630 2630" version="1.1" xmlns="http://www.w3.org/2000/svg" xmlns:xlink="http://www.w3.org/1999/xlink" xml:space="preserve" xmlns:serif="http://www.serif.com/" style="fill-rule:evenodd;clip-rule:evenodd;stroke-miterlimit:10;">
    <rect x="0" y="0" width="2630" height="2630" style="fill:rgb(0,48,73);"/>
    <g id="Layer-3" serif:id="Layer 3" transform="matrix(0.747466,0,0,0.747466,331.814,328.193)">
        <path d="M488,1724L911,0L2141,1387L1629,2598L488,1724Z" style="fill:rgb(209,39,39);fill-rule:nonzero;"/>
        <path d="M1744,221L588,945L713,2089L2026,2403L1744,221Z" style="fill:rgb(252,191,73);fill-rule:nonzero;"/>
        <g id="Layer-2" serif:id="Layer 2">
            <path d="M1412,1917L1414,1938C1417,1944 1419,1951 1420,1957L1422,1966C1422,1969 1418,1974 1418,1974L1409,1980C1409,1980 1392,1985 1388,1992C1386,1994 1387,2001 1387,2001L1389,2005L1375,2012L1351,1975C1346,1969 1342,1962 1339,1955L1335,1945C1322,1902 1280,1860 1280,1860C1219,1795 1189,1778 1189,1778L1171,1762L1172,1748L1185,1715L1189,1698L1247,1600L1269,1556L1289,1520L1298,1501L1304,1528C1305,1531 1312,1534 1312,1534L1412,1917M1468,2354C1468,2354 1484,2362 1499,2347C1499,2347 1537,2350 1530,2319L1551,2304L1559,2311L1561,2325L1571,2339L1580,2345C1588,2348 1598,2334 1601,2331L1601,2328L1612,2329L1616,2331C1616,2331 1620,2343 1624,2341L1679,2319C1679,2319 1712,2414 1679,2478C1679,2478 1670,2495 1650,2517C1650,2517 1534,2577 1409,2358C1409,2358 1414,2358 1438,2344C1438,2344 1452,2361 1468,2354M1513,2097L1515,2099L1557,2242L1551,2249C1551,2249 1541,2250 1541,2265L1501,2293C1501,2293 1497,2289 1489,2290L1469,2198C1469,2198 1503,2171 1506,2141L1505,2136L1498,2122C1487,2109 1458,2085 1442,2078L1439,2072C1439,2072 1477,2072 1513,2097M1583,2152L1581,2160L1581,2171C1582,2173 1587,2172 1587,2172C1587,2172 1590,2171 1592,2160C1592,2160 1634,2205 1653,2251C1653,2251 1646,2249 1626,2258L1621,2246C1620,2242 1617,2240 1614,2237C1611,2235 1607,2235 1603,2235L1589,2236L1588,2234L1557,2127C1557,2127 1578,2145 1583,2152M2088,1938C2067,1902 2049,1902 2027,1883C2024,1879 2020,1877 2016,1874L2012,1873C2002,1862 1987,1862 1987,1862L1975,1854L1955,1833L1924,1794C1894,1756 1885,1743 1852,1710L1817,1678L1775,1636C1764,1626 1753,1615 1741,1606C1720,1589 1718,1593 1696,1579L1679,1565C1666.21,1553.05 1654.5,1540 1644,1526L1620,1493L1545,1400L1536,1391L1525,1371L1509,1340L1496,1320L1496,1315C1493,1300 1486,1300 1481,1289L1478,1280L1469,1263C1469,1258 1464,1248 1464,1248C1459,1244 1458,1238 1458,1238C1455,1230 1453,1231 1448,1224L1441,1214C1426,1184 1425,1186 1425,1186L1419,1181L1405,1161L1396,1153C1390,1139 1374,1134 1374,1134L1372,1132C1369,1126 1371,1125 1366,1120L1362,1117L1362,1114C1362,1114 1366,1111 1365,1108C1364,1104 1357,1098 1357,1098C1359,1073 1334,1068 1334,1068C1335,1050 1327,1045 1327,1045C1326,1037 1320,1031 1320,1031L1320,1010L1318,1001L1312,986C1316,973 1308,965 1308,965C1315,944 1310,943 1310,943C1314,932 1308,925 1308,925L1307,916L1317,895L1319,883C1321,870 1323,855 1323,842C1323,827 1320,815 1322,800C1322,794 1324,788 1325,783L1332,767C1358,725 1339,660 1339,660C1341,638 1333,613 1333,613L1332,591C1331.86,554.628 1333.19,518.264 1336,482L1341,471L1342,467L1342,461L1348,443L1353,417C1357,378 1354,341 1355,302C1356,292 1357,284 1363,276L1371,269L1413,242L1424,231L1430,222L1437,217L1443,212C1450,206 1456,206 1462,199L1471,181L1477,167C1478,160 1478,146 1466,155C1463,157 1460,160 1459,163C1456,167 1454,171 1453,176L1445,179L1445,180L1445,174C1444,163 1425,142 1425,142L1421,136C1418,133 1414,132 1410,136C1406,140 1406,145 1408,151L1413,160C1403,160 1391,178 1391,179C1394,170 1383,152 1383,152L1381,137C1380,127 1368,116 1362,131C1359,142 1366,155 1369,163L1370,176C1370,178 1371,187 1369,184C1364,175 1361,165 1359,155L1358,150C1357,147 1354,144 1351,145C1346,147 1345,152 1345,157L1347,167L1352,201C1301,220 1306,257 1306,257L1305,259L1291,311L1284,338C1274,375 1262,408 1257,446L1253,471L1251,476C1236,505 1235,533 1234,564L1230,656L1222,664C1204,667 1196,638 1196,638C1182,606 1186,590 1186,590C1200,589 1204,574 1209,564C1221,542 1231,519 1228,493L1227,467L1225,461L1223,452L1216,437C1206,421 1190,397 1172,387C1166,384 1157,383 1150,380L1143,377L1134,377L1122,373C1107,370 1105,367 1089,368C1082,368 1075,371 1069,375L1058,382L1036,392C1021,400 1012,410 1004,425C1001,432 1000,437 1000,444L999,451L995,477L990,514L990,525C992,528 995,532 996,536C998,539 1000,542 1000,545L994,577C994,606 1005,628 1005,628C904,621 846,548 846,548C841,540 836,532 830,526L808,504C791,491 728,454 718,447L701,433C701,433 652,398 639,372L637,362L639,353C640,347 642,342 642,336C643,332 641,327 640,323L638,319L635,316L633,307L630,293L634,287C635,283 632,281 628,281C622,281 618,284 615,289C613,291 612,295 611,298C611,298 614,315 612,324L611,324C585,307 575,304 575,304C573,300 567,298 564,294L548,281L538,269C535,267 531,267 528,268L524,272L517,263C508,254 500,264 500,264C494,255 488,262 488,262C484,268 492,285 492,285C482,288 492,302 492,302L493,313L498,328C504.648,335.984 510.353,344.708 515,354L518,364L532,379C543,390 556,394 567,405L578,415L635,476C677,539 735,585 735,585C744,604 759,614 759,614L778,628C835.34,685.928 905.599,729.454 983,755C998,795 977,846 977,846C958,882 947,922 959,962C964,979 973,993 979,1010L987,1035C994,1077 1029,1157 1029,1157L1034,1169C1029,1198 1039,1200 1039,1200C1040,1208 1043,1206 1048,1212C1050,1214 1049,1220 1049,1220C1046,1232 1050,1237 1050,1237L1052,1239L1053,1252L1055,1255L1059,1269C1057,1277 1063,1285 1063,1285L1063,1299C1056,1308 1058,1324 1058,1324L1057,1328L1059,1337L1062,1346C1051,1365 1061,1373 1061,1373L1060,1376L1060,1385C1046,1411 1055,1410 1055,1410L1048,1420C1034,1448 1040,1444 1040,1444C1027,1478 1030,1482 1030,1482C1012,1595 1008,1612 1008,1612L1007,1631C1006,1643 1003,1654 1001,1666L996,1691L995,1700L999,1753L1002,1771L1006,1782L1011,1789L1018,1800L1026,1811L1032,1818L1051,1839C1065,1873 1196,1989 1196,1989L1306,2087L1299,2107L1294,2131C1291,2156 1289,2180 1291,2206C1299,2306 1341,2406 1405,2484C1456,2546 1535,2603 1619,2599C1645,2598 1670,2592 1691,2577L1710,2560L1728,2539C1793,2425 1737,2281 1737,2281C1703.62,2169.19 1627.39,2074.97 1525,2019L1506,1949L1501,1944C1497,1942 1493,1940 1489,1940L1476,1942L1472,1945L1462,1951L1454,1915L1447,1899L1351,1529C1357,1528 1359,1520 1358,1514L1351,1490L1364,1483C1368,1484 1419,1532 1419,1532C1469,1593 1533,1651 1600,1693C1625,1709 1625,1709 1649,1727L1684,1757C1721,1800 1861,1876 1861,1876C1881,1884 1899,1899 1913,1915C1919,1921 1917,1922 1920,1930L1922,1933C1923,1939 1941,1954 1941,1954C2012,2010 2021,2020 2021,2020C2036,2032 2055,2045 2075,2044C2079,2043 2087,2040 2091,2037C2116,2018 2094,1950 2088,1938Z" style="fill:white;fill-rule:nonzero;"/>
            <g>
                <path d="M1480,2468L1473,2332M1542,2513L1523,2334M1655,2517L1523,2320M1694,2440L1591,2332M1699,2372L1643,2320M1605,2165L1597,2243M1647,2223L1577,2240M1627,2193L1586,2249M1560,2235L1480,2172M1488,2167L1542,2281M1573,2130L1477,2287M1470,2231L1560,2246M1694,2342L1488,2346M1685,2474L1488,2342M1601,2528L1485,2334M1577,2526C1576,2519 1586,2334 1586,2334M1633,2528L1564,2325M1699,2412L1579,2338M1671,2496L1601,2320M1567,2325L1457,2440M1530,2281L1457,2224M1494,2080L1557,2215M1520,2287C1517,2282 1515,2075 1515,2075M1415,2382L1473,2338" style="fill:none;stroke:white;stroke-width:2px;"/>
            </g>
            <path d="M1227,490C1227,524 1223,546 1225,563C1228,587 1230,610 1235,623C1238,631 1241,663 1226,667C1226,667 1212,677 1211,670C1209,657 1188,639 1182,631C1161,605 1154,543 1154,543C1154,543 1227,444 1227,490Z" style="fill:white;"/>
        </g>
    </g>
</svg>
